ffmpeg started on 2025-05-26 at 19:22:42
Report written to "D:\Convert\FFMetrics\reports\ssim_report-6.txt"
Log level: 32
Command line:
ffmpeg -hide_banner -nostdin -i "G:\\\xc0\xed\xe8\xec\xe5\\\xce\xed\xe3\xee\xe8\xed\xe3\xe8\\!_34_\xc2\xe5\xf1\xed\xe0_2024\\DreamCast\\\xcc\xee\xe9 \xf1\xee\xf1\xe5\xe4-\xb8\xea\xe0\xe9\\[DC] Tonari no Youkai-san - 10_Telegram_HEVC.mkv" -i "G:\\\xc0\xed\xe8\xec\xe5\\\xce\xed\xe3\xee\xe8\xed\xe3\xe8\\!_34_\xc2\xe5\xf1\xed\xe0_2024\\DreamCast\\\xcc\xee\xe9 \xf1\xee\xf1\xe5\xe4-\xb8\xea\xe0\xe9\\[DC] Tonari no Youkai-san - 10_Telegram.mp4" -lavfi "[0:v]settb=AVTB,setpts=PTS-STARTPTS,format=pix_fmts=yuv420p10,fps=24000/1001,scale=1920:1080:flags=bicubic[main];[1:v]settb=AVTB,setpts=PTS-STARTPTS,format=pix_fmts=yuv420p,fps=24000/1001,scale=1920:1080:flags=bicubic[ref];[main][ref]ssim=eof_action=endall:stats_file='D\\:/Convert/FFMetrics/logs/ssim_logfile-6.txt'" -f null -
Input #0, matroska,webm, from 'G:\Аниме\Онгоинги\!_34_Весна_2024\DreamCast\Мой сосед-ёкай\[DC] Tonari no Youkai-san - 10_Telegram_HEVC.mkv':
  Metadata:
    COMPATIBLE_BRANDS: isomiso2avc1mp41
    MAJOR_BRAND     : isom
    MINOR_VERSION   : 512
    ENCODER         : Lavf61.7.100
  Duration: 00:23:46.60, start: -0.021000, bitrate: 863 kb/s
  Stream #0:0: Video: hevc (Main 10), yuv420p10le(tv, bt709, progressive), 1920x1080 [SAR 1:1 DAR 16:9], 23.98 fps, 23.98 tbr, 1k tbn (default)
      Metadata:
        HANDLER_NAME    : VideoHandler
        VENDOR_ID       : [0][0][0][0]
        ENCODER         : Lavc61.19.100 libx265
        BPS             : 666676
        DURATION        : 00:23:46.466708333
        NUMBER_OF_FRAMES: 34201
        NUMBER_OF_BYTES : 118873939
        _STATISTICS_WRITING_APP: mkvpropedit v66.0.0 ('Josie') 64-bit
        _STATISTICS_WRITING_DATE_UTC: 2025-05-26 14:13:41
        _STATISTICS_TAGS: BPS DURATION NUMBER_OF_FRAMES NUMBER_OF_BYTES
  Stream #0:1: Audio: aac (LC), 48000 Hz, stereo, fltp (default)
      Metadata:
        HANDLER_NAME    : SoundHandler
        VENDOR_ID       : [0][0][0][0]
        ENCODER         : Lavc61.19.100 aac
        BPS             : 192729
        DURATION        : 00:23:46.602000000
        NUMBER_OF_FRAMES: 66873
        NUMBER_OF_BYTES : 34368552
        _STATISTICS_WRITING_APP: mkvpropedit v66.0.0 ('Josie') 64-bit
        _STATISTICS_WRITING_DATE_UTC: 2025-05-26 14:13:41
        _STATISTICS_TAGS: BPS DURATION NUMBER_OF_FRAMES NUMBER_OF_BYTES
Input #1, mov,mp4,m4a,3gp,3g2,mj2, from 'G:\Аниме\Онгоинги\!_34_Весна_2024\DreamCast\Мой сосед-ёкай\[DC] Tonari no Youkai-san - 10_Telegram.mp4':
  Metadata:
    major_brand     : isom
    minor_version   : 512
    compatible_brands: isomiso2avc1mp41
    encoder         : Lavf60.16.100
  Duration: 00:23:46.58, start: 0.000000, bitrate: 3588 kb/s
  Stream #1:0[0x1](und): Video: h264 (High) (avc1 / 0x31637661), yuv420p(tv, bt709, progressive), 1920x1080 [SAR 1:1 DAR 16:9], 3440 kb/s, 23.98 fps, 23.98 tbr, 24k tbn (default)
      Metadata:
        handler_name    : VideoHandler
        vendor_id       : [0][0][0][0]
        encoder         : Lavc60.31.102 h264_qsv
  Stream #1:1[0x2](und): Audio: aac (HE-AACv2) (mp4a / 0x6134706D), 48000 Hz, stereo, fltp, 144 kb/s (default)
      Metadata:
        handler_name    : SoundHandler
        vendor_id       : [0][0][0][0]
Stream mapping:
  Stream #0:0 (hevc) -> settb:default
  Stream #1:0 (h264) -> settb:default
  ssim:default -> Stream #0:0 (wrapped_avframe)
  Stream #0:1 -> #0:1 (aac (native) -> pcm_s16le (native))
Output #0, null, to 'pipe:':
  Metadata:
    COMPATIBLE_BRANDS: isomiso2avc1mp41
    MAJOR_BRAND     : isom
    MINOR_VERSION   : 512
    encoder         : Lavf61.7.100
  Stream #0:0: Video: wrapped_avframe, yuv420p10le(tv, bt709, progressive), 1920x1080 [SAR 1:1 DAR 16:9], q=2-31, 200 kb/s, 23.98 fps, 23.98 tbn
      Metadata:
        encoder         : Lavc61.19.100 wrapped_avframe
  Stream #0:1: Audio: pcm_s16le, 48000 Hz, stereo, s16, 1536 kb/s (default)
      Metadata:
        HANDLER_NAME    : SoundHandler
        VENDOR_ID       : [0][0][0][0]
        _STATISTICS_TAGS: BPS DURATION NUMBER_OF_FRAMES NUMBER_OF_BYTES
        BPS             : 192729
        DURATION        : 00:23:46.602000000
        NUMBER_OF_FRAMES: 66873
        NUMBER_OF_BYTES : 34368552
        _STATISTICS_WRITING_APP: mkvpropedit v66.0.0 ('Josie') 64-bit
        _STATISTICS_WRITING_DATE_UTC: 2025-05-26 14:13:41
        encoder         : Lavc61.19.100 pcm_s16le
frame=  187 fps=0.0 q=-0.0 size=N/A time=00:00:07.79 bitrate=N/A speed=14.9x    frame=  403 fps=390 q=-0.0 size=N/A time=00:00:16.80 bitrate=N/A speed=16.3x    frame=  656 fps=422 q=-0.0 size=N/A time=00:00:27.36 bitrate=N/A speed=17.6x    frame=  902 fps=437 q=-0.0 size=N/A time=00:00:37.62 bitrate=N/A speed=18.2x    frame= 1152 fps=444 q=-0.0 size=N/A time=00:00:48.04 bitrate=N/A speed=18.5x    frame= 1416 fps=457 q=-0.0 size=N/A time=00:00:59.05 bitrate=N/A speed=  19x    frame= 1672 fps=463 q=-0.0 size=N/A time=00:01:09.73 bitrate=N/A speed=19.3x    frame= 1949 fps=472 q=-0.0 size=N/A time=00:01:21.28 bitrate=N/A speed=19.7x    frame= 2229 fps=479 q=-0.0 size=N/A time=00:01:32.96 bitrate=N/A speed=  20x    frame= 2496 fps=484 q=-0.0 size=N/A time=00:01:44.10 bitrate=N/A speed=20.2x    frame= 2765 fps=487 q=-0.0 size=N/A time=00:01:55.32 bitrate=N/A speed=20.3x    frame= 3009 fps=486 q=-0.0 size=N/A time=00:02:05.50 bitrate=N/A speed=20.3x    frame= 3291 fps=490 q=-0.0 size=N/A time=00:02:17.26 bitrate=N/A speed=20.4x    frame= 3495 fps=484 q=-0.0 size=N/A time=00:02:25.77 bitrate=N/A speed=20.2x    frame= 3720 fps=480 q=-0.0 size=N/A time=00:02:35.15 bitrate=N/A speed=  20x    frame= 3933 fps=477 q=-0.0 size=N/A time=00:02:44.03 bitrate=N/A speed=19.9x    frame= 4174 fps=476 q=-0.0 size=N/A time=00:02:54.09 bitrate=N/A speed=19.9x    frame= 4383 fps=472 q=-0.0 size=N/A time=00:03:02.80 bitrate=N/A speed=19.7x    frame= 4587 fps=468 q=-0.0 size=N/A time=00:03:11.31 bitrate=N/A speed=19.5x    frame= 4787 fps=464 q=-0.0 size=N/A time=00:03:19.65 bitrate=N/A speed=19.3x    frame= 4999 fps=461 q=-0.0 size=N/A time=00:03:28.49 bitrate=N/A speed=19.2x    frame= 5199 fps=458 q=-0.0 size=N/A time=00:03:36.84 bitrate=N/A speed=19.1x    frame= 5434 fps=458 q=-0.0 size=N/A time=00:03:46.64 bitrate=N/A speed=19.1x    frame= 5670 fps=458 q=-0.0 size=N/A time=00:03:56.48 bitrate=N/A speed=19.1x    frame= 5932 fps=460 q=-0.0 size=N/A time=00:04:07.41 bitrate=N/A speed=19.2x    frame= 6195 fps=462 q=-0.0 size=N/A time=00:04:18.38 bitrate=N/A speed=19.3x    frame= 6444 fps=463 q=-0.0 size=N/A time=00:04:28.76 bitrate=N/A speed=19.3x    frame= 6719 fps=465 q=-0.0 size=N/A time=00:04:40.23 bitrate=N/A speed=19.4x    frame= 6993 fps=467 q=-0.0 size=N/A time=00:04:51.66 bitrate=N/A speed=19.5x    frame= 7239 fps=468 q=-0.0 size=N/A time=00:05:01.92 bitrate=N/A speed=19.5x    frame= 7496 fps=469 q=-0.0 size=N/A time=00:05:12.64 bitrate=N/A speed=19.5x    frame= 7740 fps=469 q=-0.0 size=N/A time=00:05:22.82 bitrate=N/A speed=19.6x    frame= 7999 fps=470 q=-0.0 size=N/A time=00:05:33.62 bitrate=N/A speed=19.6x    frame= 8258 fps=471 q=-0.0 size=N/A time=00:05:44.42 bitrate=N/A speed=19.6x    frame= 8519 fps=472 q=-0.0 size=N/A time=00:05:55.31 bitrate=N/A speed=19.7x    frame= 8748 fps=471 q=-0.0 size=N/A time=00:06:04.86 bitrate=N/A speed=19.7x    frame= 9026 fps=473 q=-0.0 size=N/A time=00:06:16.45 bitrate=N/A speed=19.7x    frame= 9260 fps=472 q=-0.0 size=N/A time=00:06:26.21 bitrate=N/A speed=19.7x    frame= 9504 fps=473 q=-0.0 size=N/A time=00:06:36.39 bitrate=N/A speed=19.7x    frame= 9770 fps=473 q=-0.0 size=N/A time=00:06:47.49 bitrate=N/A speed=19.7x    frame=10027 fps=474 q=-0.0 size=N/A time=00:06:58.20 bitrate=N/A speed=19.8x    frame=10266 fps=474 q=-0.0 size=N/A time=00:07:08.17 bitrate=N/A speed=19.8x    frame=10509 fps=474 q=-0.0 size=N/A time=00:07:18.31 bitrate=N/A speed=19.8x    frame=10749 fps=474 q=-0.0 size=N/A time=00:07:28.32 bitrate=N/A speed=19.8x    frame=10991 fps=474 q=-0.0 size=N/A time=00:07:38.41 bitrate=N/A speed=19.8x    frame=11257 fps=474 q=-0.0 size=N/A time=00:07:49.51 bitrate=N/A speed=19.8x    frame=11484 fps=474 q=-0.0 size=N/A time=00:07:58.97 bitrate=N/A speed=19.8x    frame=11712 fps=473 q=-0.0 size=N/A time=00:08:08.48 bitrate=N/A speed=19.7x    frame=11950 fps=473 q=-0.0 size=N/A time=00:08:18.41 bitrate=N/A speed=19.7x    frame=12185 fps=472 q=-0.0 size=N/A time=00:08:28.21 bitrate=N/A speed=19.7x    frame=12425 fps=472 q=-0.0 size=N/A time=00:08:38.22 bitrate=N/A speed=19.7x    frame=12692 fps=473 q=-0.0 size=N/A time=00:08:49.36 bitrate=N/A speed=19.7x    frame=12946 fps=474 q=-0.0 size=N/A time=00:08:59.95 bitrate=N/A speed=19.8x    frame=13168 fps=473 q=-0.0 size=N/A time=00:09:09.21 bitrate=N/A speed=19.7x    frame=13429 fps=473 q=-0.0 size=N/A time=00:09:20.10 bitrate=N/A speed=19.7x    frame=13703 fps=474 q=-0.0 size=N/A time=00:09:31.52 bitrate=N/A speed=19.8x    frame=13939 fps=474 q=-0.0 size=N/A time=00:09:41.37 bitrate=N/A speed=19.8x    frame=14167 fps=473 q=-0.0 size=N/A time=00:09:50.88 bitrate=N/A speed=19.7x    frame=14398 fps=473 q=-0.0 size=N/A time=00:10:00.51 bitrate=N/A speed=19.7x    frame=14585 fps=471 q=-0.0 size=N/A time=00:10:08.31 bitrate=N/A speed=19.6x    frame=14766 fps=469 q=-0.0 size=N/A time=00:10:15.86 bitrate=N/A speed=19.6x    frame=14972 fps=468 q=-0.0 size=N/A time=00:10:24.45 bitrate=N/A speed=19.5x    frame=15179 fps=467 q=-0.0 size=N/A time=00:10:33.09 bitrate=N/A speed=19.5x    frame=15437 fps=467 q=-0.0 size=N/A time=00:10:43.85 bitrate=N/A speed=19.5x    frame=15667 fps=467 q=-0.0 size=N/A time=00:10:53.44 bitrate=N/A speed=19.5x    frame=15908 fps=467 q=-0.0 size=N/A time=00:11:03.49 bitrate=N/A speed=19.5x    frame=16143 fps=467 q=-0.0 size=N/A time=00:11:13.29 bitrate=N/A speed=19.5x    frame=16373 fps=466 q=-0.0 size=N/A time=00:11:22.89 bitrate=N/A speed=19.5x    frame=16573 fps=465 q=-0.0 size=N/A time=00:11:31.23 bitrate=N/A speed=19.4x    frame=16767 fps=464 q=-0.0 size=N/A time=00:11:39.32 bitrate=N/A speed=19.4x    frame=16980 fps=463 q=-0.0 size=N/A time=00:11:48.20 bitrate=N/A speed=19.3x    frame=17219 fps=463 q=-0.0 size=N/A time=00:11:58.17 bitrate=N/A speed=19.3x    frame=17473 fps=464 q=-0.0 size=N/A time=00:12:08.76 bitrate=N/A speed=19.3x    frame=17732 fps=464 q=-0.0 size=N/A time=00:12:19.57 bitrate=N/A speed=19.4x    frame=18007 fps=465 q=-0.0 size=N/A time=00:12:31.04 bitrate=N/A speed=19.4x    frame=18269 fps=466 q=-0.0 size=N/A time=00:12:41.96 bitrate=N/A speed=19.4x    frame=18513 fps=466 q=-0.0 size=N/A time=00:12:52.14 bitrate=N/A speed=19.4x    frame=18784 fps=466 q=-0.0 size=N/A time=00:13:03.44 bitrate=N/A speed=19.5x    frame=19053 fps=467 q=-0.0 size=N/A time=00:13:14.66 bitrate=N/A speed=19.5x    frame=19324 fps=468 q=-0.0 size=N/A time=00:13:25.97 bitrate=N/A speed=19.5x    frame=19580 fps=468 q=-0.0 size=N/A time=00:13:36.64 bitrate=N/A speed=19.5x    frame=19813 fps=468 q=-0.0 size=N/A time=00:13:46.36 bitrate=N/A speed=19.5x    frame=20057 fps=468 q=-0.0 size=N/A time=00:13:56.54 bitrate=N/A speed=19.5x    frame=20276 fps=467 q=-0.0 size=N/A time=00:14:05.67 bitrate=N/A speed=19.5x    frame=20534 fps=468 q=-0.0 size=N/A time=00:14:16.43 bitrate=N/A speed=19.5x    frame=20802 fps=468 q=-0.0 size=N/A time=00:14:27.61 bitrate=N/A speed=19.5x    frame=21064 fps=469 q=-0.0 size=N/A time=00:14:38.54 bitrate=N/A speed=19.6x    frame=21346 fps=470 q=-0.0 size=N/A time=00:14:50.30 bitrate=N/A speed=19.6x    frame=21620 fps=470 q=-0.0 size=N/A time=00:15:01.73 bitrate=N/A speed=19.6x    frame=21885 fps=471 q=-0.0 size=N/A time=00:15:12.78 bitrate=N/A speed=19.6x    frame=22144 fps=471 q=-0.0 size=N/A time=00:15:23.58 bitrate=N/A speed=19.7x    frame=22401 fps=471 q=-0.0 size=N/A time=00:15:34.30 bitrate=N/A speed=19.7x    frame=22626 fps=471 q=-0.0 size=N/A time=00:15:43.69 bitrate=N/A speed=19.6x    frame=22873 fps=471 q=-0.0 size=N/A time=00:15:53.99 bitrate=N/A speed=19.7x    frame=23111 fps=471 q=-0.0 size=N/A time=00:16:03.92 bitrate=N/A speed=19.6x    frame=23340 fps=471 q=-0.0 size=N/A time=00:16:13.47 bitrate=N/A speed=19.6x    frame=23583 fps=471 q=-0.0 size=N/A time=00:16:23.60 bitrate=N/A speed=19.6x    frame=23847 fps=471 q=-0.0 size=N/A time=00:16:34.61 bitrate=N/A speed=19.7x    frame=24124 fps=472 q=-0.0 size=N/A time=00:16:46.17 bitrate=N/A speed=19.7x    frame=24360 fps=472 q=-0.0 size=N/A time=00:16:56.01 bitrate=N/A speed=19.7x    frame=24604 fps=472 q=-0.0 size=N/A time=00:17:06.19 bitrate=N/A speed=19.7x    frame=24879 fps=472 q=-0.0 size=N/A time=00:17:17.66 bitrate=N/A speed=19.7x    frame=25153 fps=473 q=-0.0 size=N/A time=00:17:29.08 bitrate=N/A speed=19.7x    frame=25427 fps=473 q=-0.0 size=N/A time=00:17:40.51 bitrate=N/A speed=19.7x    frame=25706 fps=474 q=-0.0 size=N/A time=00:17:52.15 bitrate=N/A speed=19.8x    frame=25932 fps=474 q=-0.0 size=N/A time=00:18:01.58 bitrate=N/A speed=19.8x    frame=26188 fps=474 q=-0.0 size=N/A time=00:18:12.25 bitrate=N/A speed=19.8x    frame=26439 fps=474 q=-0.0 size=N/A time=00:18:22.72 bitrate=N/A speed=19.8x    frame=26692 fps=474 q=-0.0 size=N/A time=00:18:33.27 bitrate=N/A speed=19.8x    frame=26956 fps=474 q=-0.0 size=N/A time=00:18:44.28 bitrate=N/A speed=19.8x    frame=27234 fps=475 q=-0.0 size=N/A time=00:18:55.88 bitrate=N/A speed=19.8x    frame=27523 fps=476 q=-0.0 size=N/A time=00:19:07.93 bitrate=N/A speed=19.8x    frame=27767 fps=476 q=-0.0 size=N/A time=00:19:18.11 bitrate=N/A speed=19.8x    frame=28012 fps=476 q=-0.0 size=N/A time=00:19:28.33 bitrate=N/A speed=19.8x    frame=28292 fps=476 q=-0.0 size=N/A time=00:19:40.01 bitrate=N/A speed=19.9x    frame=28572 fps=477 q=-0.0 size=N/A time=00:19:51.69 bitrate=N/A speed=19.9x    frame=28838 fps=477 q=-0.0 size=N/A time=00:20:02.78 bitrate=N/A speed=19.9x    frame=29124 fps=478 q=-0.0 size=N/A time=00:20:14.71 bitrate=N/A speed=19.9x    frame=29357 fps=478 q=-0.0 size=N/A time=00:20:24.43 bitrate=N/A speed=19.9x    frame=29627 fps=478 q=-0.0 size=N/A time=00:20:35.69 bitrate=N/A speed=19.9x    frame=29888 fps=478 q=-0.0 size=N/A time=00:20:46.57 bitrate=N/A speed=19.9x    frame=30166 fps=479 q=-0.0 size=N/A time=00:20:58.17 bitrate=N/A speed=  20x    frame=30430 fps=479 q=-0.0 size=N/A time=00:21:09.18 bitrate=N/A speed=  20x    frame=30677 fps=479 q=-0.0 size=N/A time=00:21:19.48 bitrate=N/A speed=  20x    frame=30943 fps=479 q=-0.0 size=N/A time=00:21:30.58 bitrate=N/A speed=  20x    frame=31217 fps=480 q=-0.0 size=N/A time=00:21:42.00 bitrate=N/A speed=  20x    frame=31458 fps=480 q=-0.0 size=N/A time=00:21:52.06 bitrate=N/A speed=  20x    frame=31708 fps=480 q=-0.0 size=N/A time=00:22:02.48 bitrate=N/A speed=  20x    frame=31943 fps=479 q=-0.0 size=N/A time=00:22:12.28 bitrate=N/A speed=  20x    frame=32219 fps=480 q=-0.0 size=N/A time=00:22:23.80 bitrate=N/A speed=  20x    frame=32483 fps=480 q=-0.0 size=N/A time=00:22:34.81 bitrate=N/A speed=  20x    frame=32770 fps=481 q=-0.0 size=N/A time=00:22:46.78 bitrate=N/A speed=20.1x    frame=33051 fps=481 q=-0.0 size=N/A time=00:22:58.50 bitrate=N/A speed=20.1x    frame=33330 fps=482 q=-0.0 size=N/A time=00:23:10.13 bitrate=N/A speed=20.1x    frame=33578 fps=482 q=-0.0 size=N/A time=00:23:20.48 bitrate=N/A speed=20.1x    frame=33787 fps=481 q=-0.0 size=N/A time=00:23:29.19 bitrate=N/A speed=20.1x    frame=34023 fps=481 q=-0.0 size=N/A time=00:23:39.04 bitrate=N/A speed=20.1x    [Parsed_ssim_10 @ 0000029b9b50ab40] SSIM Y:0.995527 (23.493940) U:0.995243 (23.226657) V:0.995510 (23.477985) All:0.995477 (23.445599)
[out#0/null @ 0000029b8e094e80] video:14696KiB audio:267492KiB subtitle:0KiB other streams:0KiB global headers:0KiB muxing overhead: unknown
frame=34201 fps=481 q=-0.0 Lsize=N/A time=00:23:46.46 bitrate=N/A speed=20.1x    
